<mxfile host="65bd71144e">
    <diagram name="Microservice Entity Relationship" id="entity-relationship">
        <mxGraphModel dx="1680" dy="1877" grid="1" gridSize="10" guides="1" tooltips="1" connect="1" arrows="1" fold="1" page="1" pageScale="1" pageWidth="1654" pageHeight="1169" math="0" shadow="0">
            <root>
                <mxCell id="0"/>
                <mxCell id="1" parent="0"/>
                <mxCell id="account-entity" value="Account&#xa;(auth-service)" style="rounded=0;whiteSpace=wrap;html=1;fillColor=#e1d5e7;strokeColor=#9673a6;" parent="1" vertex="1">
                    <mxGeometry x="50" y="50" width="120" height="80" as="geometry"/>
                </mxCell>
                <mxCell id="account-fields" value="- id (PK)&#xa;- username (unique)&#xa;- password&#xa;- createAt&#xa;- updateAt" style="rounded=0;whiteSpace=wrap;html=1;fillColor=#f8cecc;strokeColor=#b85450;" parent="1" vertex="1">
                    <mxGeometry x="50" y="130" width="120" height="80" as="geometry"/>
                </mxCell>
                <mxCell id="role-entity" value="Role&#xa;(auth-service)" style="rounded=0;whiteSpace=wrap;html=1;fillColor=#e1d5e7;strokeColor=#9673a6;" parent="1" vertex="1">
                    <mxGeometry x="250" y="50" width="120" height="80" as="geometry"/>
                </mxCell>
                <mxCell id="role-fields" value="- id (PK)&#xa;- name (unique)" style="rounded=0;whiteSpace=wrap;html=1;fillColor=#f8cecc;strokeColor=#b85450;" parent="1" vertex="1">
                    <mxGeometry x="250" y="130" width="120" height="50" as="geometry"/>
                </mxCell>
                <mxCell id="dealer-entity" value="Dealer&#xa;(user-service)" style="rounded=0;whiteSpace=wrap;html=1;fillColor=#d5e8d4;strokeColor=#82b366;" parent="1" vertex="1">
                    <mxGeometry x="450" y="50" width="120" height="80" as="geometry"/>
                </mxCell>
                <mxCell id="dealer-fields" value="- accountId (PK, FK)&#xa;- companyName&#xa;- address&#xa;- phone (unique)&#xa;- email (unique)&#xa;- district&#xa;- city" style="rounded=0;whiteSpace=wrap;html=1;fillColor=#f8cecc;strokeColor=#b85450;" parent="1" vertex="1">
                    <mxGeometry x="450" y="130" width="120" height="110" as="geometry"/>
                </mxCell>
                <mxCell id="admin-entity" value="Admin&#xa;(user-service)" style="rounded=0;whiteSpace=wrap;html=1;fillColor=#d5e8d4;strokeColor=#82b366;" parent="1" vertex="1">
                    <mxGeometry x="650" y="50" width="120" height="80" as="geometry"/>
                </mxCell>
                <mxCell id="admin-fields" value="- accountId (PK, FK)&#xa;- name&#xa;- email&#xa;- phone&#xa;- companyName" style="rounded=0;whiteSpace=wrap;html=1;fillColor=#f8cecc;strokeColor=#b85450;" parent="1" vertex="1">
                    <mxGeometry x="650" y="130" width="120" height="80" as="geometry"/>
                </mxCell>
                <mxCell id="product-entity" value="Product&#xa;(product-service)" style="rounded=0;whiteSpace=wrap;html=1;fillColor=#fff2cc;strokeColor=#d6b656;" parent="1" vertex="1">
                    <mxGeometry x="50" y="350" width="120" height="80" as="geometry"/>
                </mxCell>
                <mxCell id="product-fields" value="- id (PK)&#xa;- sku (unique)&#xa;- name&#xa;- shortDescription&#xa;- image (JSON)&#xa;- descriptions (JSON)&#xa;- videos (JSON)&#xa;- specifications (JSON)&#xa;- price&#xa;- wholesalePrice (JSON)&#xa;- showOnHomepage&#xa;- isFeatured&#xa;- isDeleted&#xa;- createdAt&#xa;- updateAt" style="rounded=0;whiteSpace=wrap;html=1;fillColor=#f8cecc;strokeColor=#b85450;" parent="1" vertex="1">
                    <mxGeometry x="50" y="430" width="140" height="240" as="geometry"/>
                </mxCell>
                <mxCell id="productserial-entity" value="ProductSerial&#xa;(product-service)" style="rounded=0;whiteSpace=wrap;html=1;fillColor=#fff2cc;strokeColor=#d6b656;" parent="1" vertex="1">
                    <mxGeometry x="250" y="350" width="120" height="80" as="geometry"/>
                </mxCell>
                <mxCell id="productserial-fields" value="- id (PK)&#xa;- serial (unique)&#xa;- idProduct (FK)&#xa;- status (ENUM)" style="rounded=0;whiteSpace=wrap;html=1;fillColor=#f8cecc;strokeColor=#b85450;" parent="1" vertex="1">
                    <mxGeometry x="250" y="430" width="120" height="80" as="geometry"/>
                </mxCell>
                <mxCell id="productofcart-entity" value="ProductOfCart&#xa;(cart-service)" style="rounded=0;whiteSpace=wrap;html=1;fillColor=#dae8fc;strokeColor=#6c8ebf;" parent="1" vertex="1">
                    <mxGeometry x="450" y="350" width="120" height="80" as="geometry"/>
                </mxCell>
                <mxCell id="productofcart-fields" value="- id (PK)&#xa;- dealerId (FK)&#xa;- productId (FK)&#xa;- quantity&#xa;- unitPrice&#xa;- createdAt&#xa;- updatedAt" style="rounded=0;whiteSpace=wrap;html=1;fillColor=#f8cecc;strokeColor=#b85450;" parent="1" vertex="1">
                    <mxGeometry x="450" y="430" width="120" height="110" as="geometry"/>
                </mxCell>
                <mxCell id="order-entity" value="Order&#xa;(order-service)" style="rounded=0;whiteSpace=wrap;html=1;fillColor=#ffd966;strokeColor=#b3b3b3;" parent="1" vertex="1">
                    <mxGeometry x="650" y="350" width="120" height="80" as="geometry"/>
                </mxCell>
                <mxCell id="order-fields" value="- id (PK)&#xa;- idDealer (FK)&#xa;- createAt&#xa;- paymentStatus (ENUM)" style="rounded=0;whiteSpace=wrap;html=1;fillColor=#f8cecc;strokeColor=#b85450;" parent="1" vertex="1">
                    <mxGeometry x="650" y="430" width="120" height="80" as="geometry"/>
                </mxCell>
                <mxCell id="orderitem-entity" value="OrderItem&#xa;(order-service)" style="rounded=0;whiteSpace=wrap;html=1;fillColor=#ffd966;strokeColor=#b3b3b3;" parent="1" vertex="1">
                    <mxGeometry x="850" y="350" width="120" height="80" as="geometry"/>
                </mxCell>
                <mxCell id="orderitem-fields" value="- id (PK)&#xa;- unitPrice&#xa;- quantity&#xa;- idProduct (FK)&#xa;- idOrder (FK)" style="rounded=0;whiteSpace=wrap;html=1;fillColor=#f8cecc;strokeColor=#b85450;" parent="1" vertex="1">
                    <mxGeometry x="850" y="430" width="120" height="80" as="geometry"/>
                </mxCell>
                <mxCell id="warranty-entity" value="Warranty&#xa;(warranty-service)" style="rounded=0;whiteSpace=wrap;html=1;fillColor=#f0f0f0;strokeColor=#666666;" parent="1" vertex="1">
                    <mxGeometry x="1050" y="350" width="120" height="80" as="geometry"/>
                </mxCell>
                <mxCell id="warranty-fields" value="- id (PK)&#xa;- idOrderItem (FK)&#xa;- idProduct (FK)&#xa;- warrantyNumber (unique)&#xa;- startDate&#xa;- endDate&#xa;- status (ENUM)&#xa;- createdAt" style="rounded=0;whiteSpace=wrap;html=1;fillColor=#f8cecc;strokeColor=#b85450;" parent="1" vertex="1">
                    <mxGeometry x="1050" y="430" width="120" height="130" as="geometry"/>
                </mxCell>
                <mxCell id="blog-entity" value="Blog&#xa;(blog-service)" style="rounded=0;whiteSpace=wrap;html=1;fillColor=#ffe6cc;strokeColor=#d79b00;" parent="1" vertex="1">
                    <mxGeometry x="1250" y="350" width="120" height="80" as="geometry"/>
                </mxCell>
                <mxCell id="blog-fields" value="- id (PK)&#xa;- image (JSON)&#xa;- title&#xa;- description&#xa;- introduction (JSON)&#xa;- showOnHomepage&#xa;- isDeleted&#xa;- createdAt&#xa;- updateAt&#xa;- ipCategoryBlog (FK)" style="rounded=0;whiteSpace=wrap;html=1;fillColor=#f8cecc;strokeColor=#b85450;" parent="1" vertex="1">
                    <mxGeometry x="1250" y="430" width="120" height="160" as="geometry"/>
                </mxCell>
                <mxCell id="categoryblog-entity" value="CategoryBlog&#xa;(blog-service)" style="rounded=0;whiteSpace=wrap;html=1;fillColor=#ffe6cc;strokeColor=#d79b00;" parent="1" vertex="1">
                    <mxGeometry x="1450" y="350" width="120" height="80" as="geometry"/>
                </mxCell>
                <mxCell id="account-role-rel" style="edgeStyle=orthogonalEdgeStyle;rounded=0;orthogonalLoop=1;jettySize=auto;html=1;endArrow=ERmany;startArrow=ERmany;endFill=0;startFill=0;" parent="1" source="account-entity" target="role-entity" edge="1">
                    <mxGeometry relative="1" as="geometry"/>
                </mxCell>
                <mxCell id="account-role-label" value="M:N&#xa;account_roles" style="text;html=1;strokeColor=none;fillColor=none;align=center;verticalAlign=middle;whiteSpace=wrap;rounded=0;" parent="1" vertex="1">
                    <mxGeometry x="180" y="40" width="60" height="30" as="geometry"/>
                </mxCell>
                <mxCell id="account-dealer-rel" style="edgeStyle=orthogonalEdgeStyle;rounded=0;orthogonalLoop=1;jettySize=auto;html=1;endArrow=ERone;startArrow=ERone;endFill=0;startFill=0;" parent="1" source="account-entity" target="dealer-entity" edge="1">
                    <mxGeometry relative="1" as="geometry"/>
                </mxCell>
                <mxCell id="account-dealer-label" value="1:1" style="text;html=1;strokeColor=none;fillColor=none;align=center;verticalAlign=middle;whiteSpace=wrap;rounded=0;" parent="1" vertex="1">
                    <mxGeometry x="340" y="40" width="30" height="30" as="geometry"/>
                </mxCell>
                <mxCell id="account-admin-rel" style="edgeStyle=orthogonalEdgeStyle;rounded=0;orthogonalLoop=1;jettySize=auto;html=1;endArrow=ERone;startArrow=ERone;endFill=0;startFill=0;" parent="1" source="account-entity" target="admin-entity" edge="1">
                    <mxGeometry relative="1" as="geometry">
                        <Array as="points">
                            <mxPoint x="110" y="30"/>
                            <mxPoint x="710" y="30"/>
                        </Array>
                    </mxGeometry>
                </mxCell>
                <mxCell id="account-admin-label" value="1:1" style="text;html=1;strokeColor=none;fillColor=none;align=center;verticalAlign=middle;whiteSpace=wrap;rounded=0;" parent="1" vertex="1">
                    <mxGeometry x="395" y="10" width="30" height="30" as="geometry"/>
                </mxCell>
                <mxCell id="product-productserial-rel" style="edgeStyle=orthogonalEdgeStyle;rounded=0;orthogonalLoop=1;jettySize=auto;html=1;endArrow=ERmany;startArrow=ERone;endFill=0;startFill=0;" parent="1" source="product-entity" target="productserial-entity" edge="1">
                    <mxGeometry relative="1" as="geometry"/>
                </mxCell>
                <mxCell id="product-productserial-label" value="1:N" style="text;html=1;strokeColor=none;fillColor=none;align=center;verticalAlign=middle;whiteSpace=wrap;rounded=0;" parent="1" vertex="1">
                    <mxGeometry x="190" y="360" width="30" height="30" as="geometry"/>
                </mxCell>
                <mxCell id="dealer-productofcart-rel" style="edgeStyle=orthogonalEdgeStyle;rounded=0;orthogonalLoop=1;jettySize=auto;html=1;endArrow=ERmany;startArrow=ERone;endFill=0;startFill=0;" parent="1" source="dealer-entity" target="productofcart-entity" edge="1">
                    <mxGeometry relative="1" as="geometry">
                        <Array as="points">
                            <mxPoint x="510" y="280"/>
                            <mxPoint x="510" y="280"/>
                        </Array>
                    </mxGeometry>
                </mxCell>
                <mxCell id="dealer-productofcart-label" value="1:N" style="text;html=1;strokeColor=none;fillColor=none;align=center;verticalAlign=middle;whiteSpace=wrap;rounded=0;" parent="1" vertex="1">
                    <mxGeometry x="520" y="280" width="30" height="30" as="geometry"/>
                </mxCell>
                <mxCell id="product-productofcart-rel" style="edgeStyle=orthogonalEdgeStyle;rounded=0;orthogonalLoop=1;jettySize=auto;html=1;endArrow=ERmany;startArrow=ERone;endFill=0;startFill=0;" parent="1" source="product-entity" target="productofcart-entity" edge="1">
                    <mxGeometry relative="1" as="geometry">
                        <Array as="points">
                            <mxPoint x="110" y="320"/>
                            <mxPoint x="510" y="320"/>
                        </Array>
                    </mxGeometry>
                </mxCell>
                <mxCell id="product-productofcart-label" value="1:N" style="text;html=1;strokeColor=none;fillColor=none;align=center;verticalAlign=middle;whiteSpace=wrap;rounded=0;" parent="1" vertex="1">
                    <mxGeometry x="280" y="300" width="30" height="30" as="geometry"/>
                </mxCell>
                <mxCell id="dealer-order-rel" style="edgeStyle=orthogonalEdgeStyle;rounded=0;orthogonalLoop=1;jettySize=auto;html=1;endArrow=ERmany;startArrow=ERone;endFill=0;startFill=0;" parent="1" source="dealer-entity" target="order-entity" edge="1">
                    <mxGeometry relative="1" as="geometry">
                        <Array as="points">
                            <mxPoint x="510" y="300"/>
                            <mxPoint x="710" y="300"/>
                        </Array>
                    </mxGeometry>
                </mxCell>
                <mxCell id="dealer-order-label" value="1:N" style="text;html=1;strokeColor=none;fillColor=none;align=center;verticalAlign=middle;whiteSpace=wrap;rounded=0;" parent="1" vertex="1">
                    <mxGeometry x="590" y="280" width="30" height="30" as="geometry"/>
                </mxCell>
                <mxCell id="order-orderitem-rel" style="edgeStyle=orthogonalEdgeStyle;rounded=0;orthogonalLoop=1;jettySize=auto;html=1;endArrow=ERmany;startArrow=ERone;endFill=0;startFill=0;" parent="1" source="order-entity" target="orderitem-entity" edge="1">
                    <mxGeometry relative="1" as="geometry"/>
                </mxCell>
                <mxCell id="order-orderitem-label" value="1:N" style="text;html=1;strokeColor=none;fillColor=none;align=center;verticalAlign=middle;whiteSpace=wrap;rounded=0;" parent="1" vertex="1">
                    <mxGeometry x="790" y="360" width="30" height="30" as="geometry"/>
                </mxCell>
                <mxCell id="product-orderitem-rel" style="edgeStyle=orthogonalEdgeStyle;rounded=0;orthogonalLoop=1;jettySize=auto;html=1;endArrow=ERmany;startArrow=ERone;endFill=0;startFill=0;" parent="1" source="product-entity" target="orderitem-entity" edge="1">
                    <mxGeometry relative="1" as="geometry">
                        <Array as="points">
                            <mxPoint x="110" y="290"/>
                            <mxPoint x="910" y="290"/>
                        </Array>
                    </mxGeometry>
                </mxCell>
                <mxCell id="product-orderitem-label" value="1:N" style="text;html=1;strokeColor=none;fillColor=none;align=center;verticalAlign=middle;whiteSpace=wrap;rounded=0;" parent="1" vertex="1">
                    <mxGeometry x="480" y="270" width="30" height="30" as="geometry"/>
                </mxCell>
                <mxCell id="orderitem-warranty-rel" style="edgeStyle=orthogonalEdgeStyle;rounded=0;orthogonalLoop=1;jettySize=auto;html=1;endArrow=ERone;startArrow=ERone;endFill=0;startFill=0;" parent="1" source="orderitem-entity" target="warranty-entity" edge="1">
                    <mxGeometry relative="1" as="geometry"/>
                </mxCell>
                <mxCell id="orderitem-warranty-label" value="1:1" style="text;html=1;strokeColor=none;fillColor=none;align=center;verticalAlign=middle;whiteSpace=wrap;rounded=0;" parent="1" vertex="1">
                    <mxGeometry x="990" y="360" width="30" height="30" as="geometry"/>
                </mxCell>
                <mxCell id="product-warranty-rel" style="edgeStyle=orthogonalEdgeStyle;rounded=0;orthogonalLoop=1;jettySize=auto;html=1;endArrow=ERmany;startArrow=ERone;endFill=0;startFill=0;" parent="1" source="product-entity" target="warranty-entity" edge="1">
                    <mxGeometry relative="1" as="geometry">
                        <Array as="points">
                            <mxPoint x="110" y="270"/>
                            <mxPoint x="1110" y="270"/>
                        </Array>
                    </mxGeometry>
                </mxCell>
                <mxCell id="product-warranty-label" value="1:N" style="text;html=1;strokeColor=none;fillColor=none;align=center;verticalAlign=middle;whiteSpace=wrap;rounded=0;" parent="1" vertex="1">
                    <mxGeometry x="580" y="250" width="30" height="30" as="geometry"/>
                </mxCell>
                <mxCell id="categoryblog-blog-rel" style="edgeStyle=orthogonalEdgeStyle;rounded=0;orthogonalLoop=1;jettySize=auto;html=1;endArrow=ERmany;startArrow=ERone;endFill=0;startFill=0;" parent="1" source="categoryblog-entity" target="blog-entity" edge="1">
                    <mxGeometry relative="1" as="geometry"/>
                </mxCell>
                <mxCell id="categoryblog-blog-label" value="1:N" style="text;html=1;strokeColor=none;fillColor=none;align=center;verticalAlign=middle;whiteSpace=wrap;rounded=0;" parent="1" vertex="1">
                    <mxGeometry x="1390" y="360" width="30" height="30" as="geometry"/>
                </mxCell>
                <mxCell id="quantity-title" value="QUANTITY RELATIONSHIPS" style="text;html=1;strokeColor=none;fillColor=#ffe6cc;align=center;verticalAlign=middle;whiteSpace=wrap;rounded=0;fontSize=16;fontStyle=1;" parent="1" vertex="1">
                    <mxGeometry x="50" y="750" width="200" height="30" as="geometry"/>
                </mxCell>
                <mxCell id="quantity-labels" value="Key Quantity Fields:&#xa;&#xa;• ProductOfCart.quantity - Cart item quantities&#xa;• OrderItem.quantity - Order item quantities  &#xa;• ProductSerial - Individual product units (1:1 with physical items)&#xa;&#xa;Business Logic:&#xa;• Product has many ProductSerials (stock units)&#xa;• ProductSerial.status tracks availability (AVAILABLE/SOLD/RESERVED)&#xa;• Cart stores desired quantities per product per dealer&#xa;• Order captures actual quantities purchased&#xa;• Warranty tracks individual product units via OrderItem" style="text;html=1;strokeColor=#82b366;fillColor=#d5e8d4;align=left;verticalAlign=top;whiteSpace=wrap;rounded=0;fontSize=12;" parent="1" vertex="1">
                    <mxGeometry x="50" y="780" width="400" height="200" as="geometry"/>
                </mxCell>
                <mxCell id="legend-title" value="SERVICE LEGEND" style="text;html=1;strokeColor=none;fillColor=#f0f0f0;align=center;verticalAlign=middle;whiteSpace=wrap;rounded=0;fontSize=16;fontStyle=1;" parent="1" vertex="1">
                    <mxGeometry x="1200" y="750" width="150" height="30" as="geometry"/>
                </mxCell>
                <mxCell id="auth-legend" value="Auth Service" style="rounded=0;whiteSpace=wrap;html=1;fillColor=#e1d5e7;strokeColor=#9673a6;" parent="1" vertex="1">
                    <mxGeometry x="1200" y="780" width="80" height="30" as="geometry"/>
                </mxCell>
                <mxCell id="user-legend" value="User Service" style="rounded=0;whiteSpace=wrap;html=1;fillColor=#d5e8d4;strokeColor=#82b366;" parent="1" vertex="1">
                    <mxGeometry x="1200" y="820" width="80" height="30" as="geometry"/>
                </mxCell>
                <mxCell id="product-legend" value="Product Service" style="rounded=0;whiteSpace=wrap;html=1;fillColor=#fff2cc;strokeColor=#d6b656;" parent="1" vertex="1">
                    <mxGeometry x="1200" y="860" width="80" height="30" as="geometry"/>
                </mxCell>
                <mxCell id="cart-legend" value="Cart Service" style="rounded=0;whiteSpace=wrap;html=1;fillColor=#dae8fc;strokeColor=#6c8ebf;" parent="1" vertex="1">
                    <mxGeometry x="1200" y="900" width="80" height="30" as="geometry"/>
                </mxCell>
                <mxCell id="order-legend" value="Order Service" style="rounded=0;whiteSpace=wrap;html=1;fillColor=#ffd966;strokeColor=#b3b3b3;" parent="1" vertex="1">
                    <mxGeometry x="1300" y="780" width="80" height="30" as="geometry"/>
                </mxCell>
                <mxCell id="warranty-legend" value="Warranty Service" style="rounded=0;whiteSpace=wrap;html=1;fillColor=#f0f0f0;strokeColor=#666666;" parent="1" vertex="1">
                    <mxGeometry x="1300" y="820" width="80" height="30" as="geometry"/>
                </mxCell>
                <mxCell id="blog-legend" value="Blog Service" style="rounded=0;whiteSpace=wrap;html=1;fillColor=#ffe6cc;strokeColor=#d79b00;" parent="1" vertex="1">
                    <mxGeometry x="1300" y="860" width="80" height="30" as="geometry"/>
                </mxCell>
            </root>
        </mxGraphModel>
    </diagram>
</mxfile>